<svg xmlns="http://www.w3.org/2000/svg" viewBox="0 0 238 33" fill="none"> 
    <path d="M31.93.75H3.205C1.427.75 0 2.154 0 3.908a3.21 3.21 0 0 0 3.205 3.205h12.818a3.19 3.19 0 0 1 3.135 3.18 3.21 3.21 0 0 1-3.205 3.206H9.591a3.21 3.21 0 0 0-3.205 3.204 3.21 3.21 0 0 0 3.205 3.205h6.175-.14.35a3.21 3.21 0 0 1 3.205 3.205c0 1.707-1.473 3.064-3.134 3.18H16a3.235 3.235 0 0 0-3.228 3.229A3.235 3.235 0 0 0 16 32.75h15.953c8.819 0 15.977-7.158 15.977-15.977 0-8.818-7.181-16.023-16-16.023Z" fill="#FA9423"/>
    <path d="M38.392 23.066c.913 0 1.661-.749 1.661-1.661h-.047V15.3a5.012 5.012 0 0 0-5.005-5.006 5.02 5.02 0 0 0-3.369 1.286 5.062 5.062 0 0 0-3.368-1.286 5.012 5.012 0 0 0-5.006 5.006v6.105c0 .912.748 1.66 1.66 1.66.913 0 1.662-.748 1.662-1.66V15.3c0-.936.771-1.708 1.707-1.708s1.708.772 1.708 1.708v6.105c0 .912.748 1.66 1.66 1.66.913 0 1.661-.748 1.661-1.66V15.3c0-.936.772-1.708 1.708-1.708.936 0 1.707.772 1.707 1.708v6.105c0 .912.749 1.66 1.661 1.66Z" fill="#fff"/>
    <path d="M65.144 11.816c-.389-.155-.738-.31-1.127-.388a5.881 5.881 0 0 0-1.243-.117c-.855 0-1.593.156-2.215.428a3.99 3.99 0 0 0-1.631 1.243c-.466.544-.777 1.204-1.05 1.942-.232.777-.349 1.632-.349 2.603 0 .932.156 1.787.428 2.525.272.739.66 1.399 1.204 1.943.505.544 1.165.932 1.942 1.204a7.777 7.777 0 0 0 2.603.427c.389 0 .816 0 1.282-.038.428-.04.894-.078 1.282-.156.428-.077.816-.116 1.205-.194.388-.078.738-.155 1.049-.272V5.95l-3.341.544v5.322h-.04Zm0 8.858c-.156.039-.389.039-.622.078-.272.039-.544.039-.816.039-.893 0-1.593-.311-2.059-.933-.466-.622-.699-1.476-.699-2.486 0-2.137.777-3.225 2.37-3.225.35 0 .7.04 1.01.117.35.078.621.194.816.35v6.06ZM74.04 6.727c.389.35.583.816.583 1.438 0 .621-.194 1.087-.583 1.437-.388.35-.855.544-1.399.544-.543 0-1.01-.194-1.398-.544-.388-.35-.583-.816-.583-1.437 0-.622.195-1.088.583-1.438.389-.35.855-.544 1.398-.544a2 2 0 0 1 1.4.544Zm-3.069 4.817h3.341v11.772h-3.341V11.544Zm14.102-.038a14.406 14.406 0 0 0-1.282-.156c-.427-.039-.855-.039-1.243-.039-.932 0-1.787.156-2.525.428s-1.36.66-1.904 1.165a5.252 5.252 0 0 0-1.165 1.826c-.272.7-.389 1.515-.389 2.37 0 1.748.428 3.069 1.282 4.04.855.971 2.098 1.438 3.73 1.438.466 0 .855-.04 1.243-.117a4.317 4.317 0 0 0 1.127-.388v.427c0 .66-.195 1.204-.583 1.631-.389.428-1.088.622-2.02.622a9.366 9.366 0 0 1-1.943-.194 7.26 7.26 0 0 1-1.631-.505l-.583 2.797c.621.194 1.282.388 1.981.505.7.116 1.438.194 2.137.194 2.059 0 3.574-.466 4.545-1.398.971-.933 1.476-2.37 1.476-4.274v-9.906c-.31-.078-.621-.194-1.01-.272a15.668 15.668 0 0 0-1.243-.194Zm-1.126 7.925a2.938 2.938 0 0 1-.777.31 3.905 3.905 0 0 1-.972.117c-1.515 0-2.253-.932-2.253-2.797 0-.893.233-1.632.66-2.214.428-.583 1.088-.894 1.982-.894.31 0 .544 0 .777.039.233.039.427.039.583.078v5.36Zm8.857-12.704c.389.35.583.816.583 1.438 0 .621-.194 1.087-.583 1.437-.388.35-.855.544-1.398.544-.544 0-1.01-.194-1.399-.544-.389-.35-.583-.816-.583-1.437 0-.622.194-1.088.583-1.438.388-.35.855-.544 1.399-.544.543 0 1.01.156 1.398.544Zm-3.069 4.817h3.341v11.772h-3.34V11.544Zm13.053 8.858.466 2.603a9.47 9.47 0 0 1-1.359.427 7.957 7.957 0 0 1-1.826.195c-.894 0-1.67-.117-2.253-.389-.583-.233-1.088-.583-1.438-1.049a3.555 3.555 0 0 1-.738-1.593c-.155-.621-.194-1.32-.194-2.098V8.631l3.34-.544v3.457h4.002v2.798h-4.001v4.156c0 .7.116 1.282.388 1.67.233.428.739.623 1.477.623.349 0 .738-.04 1.126-.117.35-.039.7-.155 1.01-.272Zm10.218-7.848c-.389-.427-.933-.738-1.593-.97-.661-.234-1.477-.35-2.448-.35-.388 0-.777 0-1.165.039-.389.038-.738.077-1.088.116-.35.039-.66.117-.971.194-.311.078-.544.117-.738.194l.427 2.681c.389-.155.894-.272 1.437-.35a12.08 12.08 0 0 1 1.671-.116c.855 0 1.437.155 1.787.505.35.35.505.816.505 1.36v.31c-.194-.077-.466-.116-.816-.155-.349-.039-.738-.039-1.165-.039a9.51 9.51 0 0 0-1.865.194 5.236 5.236 0 0 0-1.593.622c-.466.272-.816.66-1.126 1.127-.272.466-.428 1.049-.428 1.748 0 .7.117 1.32.35 1.826a2.86 2.86 0 0 0 1.049 1.204c.466.31.971.544 1.593.66.621.117 1.32.195 2.059.195a23.24 23.24 0 0 0 3.107-.194c.855-.156 1.516-.272 1.982-.389v-6.954c0-.738-.078-1.399-.233-1.981-.078-.544-.35-1.05-.738-1.476Zm-2.137 8.392c-.194.039-.427.039-.699.078-.311 0-.622.038-.933.038-.621 0-1.088-.116-1.437-.31-.35-.195-.544-.583-.544-1.088 0-.272.078-.505.194-.66.117-.195.272-.311.505-.428.194-.117.466-.194.738-.194.272-.039.583-.039.894-.039.233 0 .466 0 .738.039.272.039.466.077.622.077v2.487h-.078Zm10.761-.117-.466 2.759c-.971 0-1.748-.117-2.37-.311-.622-.194-1.088-.466-1.437-.816a2.602 2.602 0 0 1-.7-1.282 7.427 7.427 0 0 1-.194-1.71V6.495l3.341-.544v12.86c0 .31.039.582.078.815.039.233.116.427.272.622.116.155.311.31.544.388.194.078.505.155.932.194Zm8.28-3.359c0-1.12-.16-1.88-.44-2.36s-.76-.68-1.48-.68c-.2 0-.44 0-.68.04-.24.04-.44.04-.68.08v9.36h-3.4V12.19c.28-.08.64-.16 1.04-.24.4-.08.8-.16 1.24-.24.44-.08.88-.12 1.36-.16.48-.04.92-.04 1.36-.04.88 0 1.6.12 2.12.32.56.24 1 .48 1.36.8.48-.36 1.04-.64 1.68-.84.64-.2 1.24-.32 1.76-.32.96 0 1.76.12 2.4.4.64.28 1.12.64 1.48 1.16.36.48.64 1.08.76 1.76.12.68.2 1.44.2 2.28v6.84h-3.44v-6.44c0-1.12-.16-1.88-.44-2.36s-.76-.68-1.48-.68c-.2 0-.44.04-.76.12-.32.08-.6.2-.8.36.12.36.16.72.2 1.12.04.4.04.8.04 1.24v6.64h-3.44v-6.44h.04Zm16.52-6.04c1 0 1.88.12 2.52.36.68.24 1.2.56 1.64 1 .4.44.68.96.88 1.56.16.6.24 1.28.24 2.04v7.16c-.48.12-1.16.24-2.04.4-.88.16-1.92.2-3.2.2-.8 0-1.48-.08-2.12-.2a4.06 4.06 0 0 1-1.64-.68c-.48-.32-.8-.72-1.08-1.24-.24-.52-.36-1.12-.36-1.88 0-.72.16-1.32.44-1.8s.68-.88 1.16-1.16c.48-.28 1.04-.52 1.64-.64.6-.12 1.24-.2 1.92-.2.44 0 .84 0 1.2.04s.64.08.84.16v-.32c0-.6-.16-1.04-.52-1.4-.36-.36-.96-.52-1.84-.52-.6 0-1.16.04-1.72.12-.56.08-1.08.2-1.48.36l-.44-2.76c.2-.08.44-.12.76-.2.32-.08.64-.12 1-.2.36-.04.72-.12 1.12-.12.32-.04.68-.08 1.08-.08Zm.28 10.08c.32 0 .68 0 .96-.04.32 0 .56-.04.72-.08v-2.6c-.12-.04-.36-.08-.64-.08-.28-.04-.52-.04-.76-.04-.32 0-.64 0-.92.04s-.52.12-.76.2c-.2.12-.4.24-.52.44s-.2.4-.2.68c0 .52.2.92.56 1.12.44.24.96.36 1.56.36Zm14.441-6.72c-.32-.08-.68-.16-1.08-.24-.4-.08-.88-.12-1.32-.12-.2 0-.48 0-.76.04-.32.04-.52.08-.68.12v9.28h-3.44V12.39c.6-.2 1.36-.4 2.2-.6.84-.2 1.76-.28 2.8-.28.2 0 .4 0 .68.04s.52.04.8.08.52.08.8.12c.28.04.48.12.68.2l-.68 2.84Zm8.719 2.68c0-1.12-.16-1.88-.44-2.36s-.76-.68-1.48-.68c-.2 0-.44 0-.68.04-.24.04-.44.04-.68.08v9.36h-3.44V12.19c.28-.08.64-.16 1.04-.24.4-.08.8-.16 1.24-.24.44-.08.88-.12 1.36-.16.48-.04.92-.04 1.36-.04.88 0 1.6.12 2.12.32.56.24 1 .48 1.36.8.48-.36 1.04-.64 1.68-.84.64-.2 1.24-.32 1.76-.32.96 0 1.76.12 2.4.4.64.28 1.12.64 1.48 1.16.36.48.64 1.08.76 1.76.12.68.2 1.44.2 2.28v6.84h-3.44v-6.44c0-1.12-.16-1.88-.44-2.36s-.76-.68-1.48-.68c-.2 0-.44.04-.76.12-.32.08-.6.2-.8.36.12.36.16.72.2 1.12.04.4.04.8.04 1.24v6.64h-3.44v-6.44h.08Zm16.56-6.04c1 0 1.88.12 2.52.36.68.24 1.2.56 1.64 1 .4.44.68.96.88 1.56.16.6.24 1.28.24 2.04v7.16c-.48.12-1.16.24-2.04.4-.88.16-1.92.2-3.2.2-.8 0-1.48-.08-2.12-.2a4.06 4.06 0 0 1-1.64-.68c-.48-.32-.8-.72-1.08-1.24-.24-.52-.36-1.12-.36-1.88 0-.72.16-1.32.44-1.8s.68-.88 1.16-1.16c.48-.28 1.04-.52 1.64-.64.6-.12 1.24-.2 1.92-.2.44 0 .84 0 1.2.04s.64.08.84.16v-.32c0-.6-.16-1.04-.52-1.4-.36-.36-.96-.52-1.84-.52-.6 0-1.16.04-1.72.12-.56.08-1.08.2-1.48.36l-.44-2.76c.2-.08.44-.12.76-.2.32-.08.64-.12 1-.2.36-.04.72-.12 1.12-.12.28-.04.68-.08 1.08-.08Zm.28 10.08c.32 0 .68 0 .96-.04.32 0 .56-.04.72-.08v-2.6c-.12-.04-.36-.08-.64-.08-.28-.04-.52-.04-.76-.04-.32 0-.64 0-.92.04s-.52.12-.76.2c-.2.12-.4.24-.52.44s-.2.4-.2.68c0 .52.2.92.56 1.12.44.24.92.36 1.56.36Zm12.28 2.6c-1 0-1.8-.12-2.44-.32-.64-.2-1.12-.48-1.48-.84-.36-.36-.6-.8-.72-1.32s-.2-1.08-.2-1.76V6.51l3.44-.56v13.24c0 .32.04.6.08.84s.12.44.28.64c.12.16.32.32.56.4.24.12.56.16 1 .2l-.52 2.84Zm6.801-12.68c1 0 1.88.12 2.52.36.68.24 1.2.56 1.64 1 .4.44.68.96.88 1.56.16.6.24 1.28.24 2.04v7.16c-.48.12-1.16.24-2.04.4-.88.16-1.92.2-3.2.2-.8 0-1.48-.08-2.12-.2a4.06 4.06 0 0 1-1.64-.68c-.48-.32-.8-.72-1.08-1.24-.24-.52-.36-1.12-.36-1.88 0-.72.16-1.32.44-1.8s.68-.88 1.16-1.16c.48-.28 1.04-.52 1.64-.64.6-.12 1.24-.2 1.92-.2.44 0 .84 0 1.2.04s.64.08.84.16v-.32c0-.6-.16-1.04-.52-1.4-.36-.36-.96-.52-1.84-.52-.6 0-1.16.04-1.72.12-.56.08-1.08.2-1.48.36l-.44-2.76c.2-.08.44-.12.76-.2.32-.08.64-.12 1-.2.36-.04.72-.12 1.12-.12.28-.04.68-.08 1.08-.08Zm.28 10.08c.32 0 .68 0 .96-.04.32 0 .56-.04.72-.08v-2.6c-.12-.04-.36-.08-.64-.08-.28-.04-.52-.04-.76-.04-.32 0-.64 0-.92.04s-.52.12-.76.2c-.2.12-.4.24-.52.44s-.2.4-.2.68c0 .52.2.92.56 1.12.44.24.92.36 1.56.36Zm18.159 2c-.32.08-.68.2-1.08.28-.4.08-.8.16-1.24.2-.44.08-.88.12-1.32.16-.44.04-.88.04-1.32.04-1 0-1.88-.16-2.68-.44-.8-.28-1.44-.72-2-1.24-.52-.56-.96-1.2-1.24-2-.28-.76-.44-1.64-.44-2.6 0-1 .12-1.88.36-2.68.24-.8.6-1.48 1.08-2 .48-.52 1.04-.96 1.68-1.28.68-.28 1.44-.44 2.28-.44.48 0 .92.04 1.28.12.36.08.76.24 1.16.4V6.55l3.44-.56v17.52h.04Zm-7.8-5.76c0 1.08.24 1.92.72 2.56.48.64 1.2.96 2.12.96.32 0 .6 0 .84-.04.28-.04.48-.04.64-.08v-6.24c-.2-.12-.48-.24-.84-.36s-.68-.12-1.04-.12c-1.64 0-2.44 1.08-2.44 3.32Zm9.4.16c0-1.08.16-2 .48-2.84.32-.8.76-1.48 1.32-2 .52-.52 1.16-.96 1.84-1.24.68-.28 1.4-.4 2.16-.4 1.72 0 3.08.52 4.08 1.6 1 1.04 1.52 2.6 1.52 4.64 0 .2 0 .4-.04.64 0 .24-.04.44-.04.64h-7.8c.08.72.4 1.28 1 1.68.6.4 1.36.64 2.36.64.64 0 1.24-.04 1.84-.16.6-.12 1.12-.24 1.48-.44l.48 2.8c-.2.08-.44.2-.72.28-.32.08-.64.16-1.04.24-.36.08-.8.12-1.2.16-.44.04-.88.08-1.28.08-1.08 0-2.04-.16-2.84-.48-.8-.32-1.48-.76-2-1.32s-.92-1.24-1.16-2c-.32-.8-.44-1.6-.44-2.52Zm8.08-1.32c0-.28-.08-.56-.16-.84a1.6 1.6 0 0 0-.4-.72c-.16-.2-.4-.4-.68-.52s-.6-.2-1-.2-.72.08-1 .2c-.28.12-.52.32-.68.52-.2.2-.32.48-.44.76s-.16.56-.2.88h4.56v-.08Z" fill="#FA9423"/>
</svg>
